<svg xmlns="http://www.w3.org/2000/svg" width="936" height="389" viewBox="0 0 936 389">
    <g fill="none" fill-rule="evenodd" stroke="#94347A" transform="translate(2 3)">
        <path stroke-linecap="round" stroke-width="3" d="M388.507 193.16c.38-2.304-.038-4.234-1.253-5.789-1.823-2.333-6.515-3.95-4.934-7.231 1.581-3.281 10.139-3.84 10.804-8.136.665-4.296-6.857-7.634-6.857-11.001 0-3.368 6.481-2.832 8.166-4.262 1.123-.953 1.813-2.2 2.068-3.741M22.92 162.712c-1.273 1.055-1.946 2.28-2.019 3.675-.11 2.093 1.645 5.135-.723 6.154-2.368 1.018-7.198-2.657-9.549-.671-2.35 1.986.118 7.262-1.445 9.061-1.564 1.799-4.778-1.497-6.342-1.516-1.042-.012-1.99.334-2.842 1.038"/>
        <path stroke-width="5" d="M921.391 79.922l10.082 9.25a1.04 1.04 0 1 1 1.407-1.534l-10.081-9.25a1.04 1.04 0 0 1-1.408 1.534zm9.723-2.412l-9.592 10.418a1.04 1.04 0 0 1 1.531 1.41l9.593-10.418a1.04 1.04 0 0 1-1.532-1.41z"/>
        <path stroke-linecap="round" stroke-linejoin="round" stroke-width="4" d="M631.34 365.162l-.87 18 15.583-7.696-9.896-7.18"/>
        <circle cx="640" cy="6" r="6" fill="none" stroke-width="5"/>
    </g>
</svg>
